<svg width="14" height="13" viewBox="0 0 14 13" fill="none" xmlns="http://www.w3.org/2000/svg">
<path d="M10.225 1C10.589 0.999694 10.9495 1.07207 11.2852 1.21287C11.6209 1.35368 11.9251 1.56009 12.18 1.82C12.7052 2.35319 12.9996 3.07158 12.9996 3.82C12.9996 4.56842 12.7052 5.28681 12.18 5.82L7.00001 11.065L1.82001 5.82C1.2948 5.28681 1.0004 4.56842 1.0004 3.82C1.0004 3.07158 1.2948 2.35319 1.82001 1.82C2.07506 1.56028 2.3793 1.35398 2.71497 1.21315C3.05063 1.07232 3.411 0.999787 3.77501 0.999787C4.13902 0.999787 4.49939 1.07232 4.83505 1.21315C5.17072 1.35398 5.47496 1.56028 5.73001 1.82L7.00001 3.12L8.26501 1.83C8.51913 1.56699 8.82368 1.35793 9.16045 1.21532C9.49722 1.07271 9.85929 0.999476 10.225 1ZM10.225 1.34143e-06C9.72782 -0.000420019 9.23555 0.098429 8.77707 0.290752C8.31858 0.483076 7.90311 0.765002 7.55501 1.12L7.00001 1.68L6.44501 1.12C6.09648 0.765643 5.68091 0.484206 5.2225 0.292097C4.7641 0.0999872 4.27204 0.00104871 3.77501 0.00104871C3.27798 0.00104871 2.78592 0.0999872 2.32752 0.292097C1.86911 0.484206 1.45353 0.765643 1.10501 1.12C0.395949 1.84181 -0.00134277 2.81318 -0.00134277 3.825C-0.00134277 4.83682 0.395949 5.80819 1.10501 6.53L7.00001 12.5L12.895 6.53C13.6041 5.80819 14.0014 4.83682 14.0014 3.825C14.0014 2.81318 13.6041 1.84181 12.895 1.12C12.5466 0.765453 12.131 0.483823 11.6726 0.291532C11.2142 0.0992411 10.7221 0.000138049 10.225 1.34143e-06Z" fill="#ffffff"/>
</svg>
