<svg width="12" height="14" viewBox="0 0 12 14" fill="none" xmlns="http://www.w3.org/2000/svg">
<path d="M4.75126 1.7068C4.52204 2.68541 4.49085 3.69999 4.65953 4.69083C4.82821 5.68168 5.19334 6.62878 5.73346 7.47643C6.27357 8.32407 6.97776 9.05514 7.80458 9.62662C8.63141 10.1981 9.56418 10.5984 10.548 10.8041C10.0307 11.3392 9.41122 11.765 8.72626 12.0561C8.04129 12.3472 7.30482 12.4977 6.56056 12.4987C6.49131 12.4987 6.42146 12.5013 6.35166 12.4987C5.05599 12.4529 3.81731 11.9547 2.85075 11.0906C1.88418 10.2265 1.25081 9.0512 1.06063 7.76875C0.870444 6.48629 1.13547 5.17773 1.80967 4.07034C2.48387 2.96295 3.52466 2.12669 4.75126 1.7068ZM5.49001 0.5C5.46074 0.500046 5.43153 0.502656 5.40271 0.5078C3.81059 0.790594 2.37942 1.65251 1.38485 2.92753C0.390294 4.20254 -0.0973055 5.80048 0.0159744 7.41355C0.129254 9.02662 0.835401 10.5407 1.9984 11.6642C3.1614 12.7877 4.69899 13.4412 6.31501 13.4986C6.39706 13.5016 6.47911 13.4986 6.56046 13.4986C7.60987 13.4992 8.64398 13.2471 9.57537 12.7636C10.5068 12.2801 11.308 11.5794 11.9115 10.7208C11.9604 10.6469 11.9889 10.5613 11.9943 10.4728C11.9996 10.3842 11.9815 10.2958 11.9418 10.2165C11.902 10.1372 11.8421 10.0698 11.7681 10.021C11.694 9.97221 11.6084 9.94381 11.5198 9.93865C10.5209 9.85102 9.55552 9.53487 8.69829 9.01463C7.84106 8.49439 7.11494 7.784 6.57605 6.93837C6.03716 6.09274 5.69993 5.13452 5.59045 4.13777C5.48096 3.14102 5.60213 2.13245 5.94461 1.19C5.97375 1.1146 5.98445 1.03332 5.97582 0.952949C5.96719 0.872575 5.93949 0.795424 5.89501 0.727921C5.85054 0.660418 5.79058 0.604517 5.72014 0.564872C5.64969 0.525227 5.57079 0.502986 5.49001 0.5Z" fill="#ffffff"/>
</svg>
