<svg width="14" height="11" viewBox="0 0 14 11" fill="none" xmlns="http://www.w3.org/2000/svg">
<path d="M13.38 3.675C13.333 3.62012 13.2748 3.57606 13.2092 3.54585C13.1436 3.51564 13.0722 3.5 13 3.5H9.99999V1.5C9.99999 1.10218 9.84195 0.720644 9.56065 0.43934C9.27934 0.158035 8.89781 0 8.49999 0H5.49999C5.10216 0 4.72063 0.158035 4.43933 0.43934C4.15802 0.720644 3.99999 1.10218 3.99999 1.5V3.5H0.999986C0.927509 3.49918 0.85572 3.51413 0.789593 3.5438C0.723466 3.57348 0.664582 3.61718 0.617021 3.67188C0.56946 3.72657 0.534359 3.79096 0.514151 3.86056C0.493942 3.93017 0.489109 4.00334 0.499986 4.075L1.43999 10.15C1.47615 10.3885 1.59727 10.6058 1.78103 10.762C1.9648 10.9182 2.19882 11.0027 2.43999 11H11.57C11.8111 11.0027 12.0452 10.9182 12.2289 10.762C12.4127 10.6058 12.5338 10.3885 12.57 10.15L13.5 4.075C13.51 4.00362 13.5045 3.93091 13.4837 3.86187C13.463 3.79283 13.4276 3.72908 13.38 3.675ZM4.99999 1.5C4.99999 1.36739 5.05266 1.24021 5.14643 1.14645C5.2402 1.05268 5.36738 1 5.49999 1H8.49999C8.63259 1 8.75977 1.05268 8.85354 1.14645C8.94731 1.24021 8.99999 1.36739 8.99999 1.5V3.5H4.99999V1.5ZM11.57 10H2.42999L1.58499 4.5H12.415L11.57 10Z" fill="#ffffff"/>
</svg>
